<?xml version="1.0" encoding="UTF-8"?>
<svg version="1.1" xmlns="http://www.w3.org/2000/svg" width="48" height="48">
<path d="M0 0 C15.84 0 31.68 0 48 0 C48 15.84 48 31.68 48 48 C32.16 48 16.32 48 0 48 C0 32.16 0 16.32 0 0 Z " fill="#FAFAFA" transform="translate(0,0)"/>
<path d="M0 0 C1.875 0.5625 1.875 0.5625 4 2 C5.25 5.625 5.25 5.625 6 9 C7.32 8.67 8.64 8.34 10 8 C10 8.66 10 9.32 10 10 C9.01 10 8.02 10 7 10 C7.33 11.98 7.66 13.96 8 16 C7.34 16 6.68 16 6 16 C5.67 15.34 5.34 14.68 5 14 C3.68 14.33 2.36 14.66 1 15 C0.67 16.32 0.34 17.64 0 19 C-0.66 19 -1.32 19 -2 19 C-1.85982174 16.02046641 -1.71313658 13.04150696 -1.5625 10.0625 C-1.52318359 9.21236328 -1.48386719 8.36222656 -1.44335938 7.48632812 C-1.40146484 6.67744141 -1.35957031 5.86855469 -1.31640625 5.03515625 C-1.27974854 4.2862915 -1.24309082 3.53742676 -1.20532227 2.76586914 C-1 1 -1 1 0 0 Z " fill="#393939" transform="translate(8,15)"/>
<path d="M0 0 C0.66 0 1.32 0 2 0 C3.14982602 4.09003859 3.11094256 8.03177051 3.0625 12.25 C3.05798828 12.99507812 3.05347656 13.74015625 3.04882812 14.5078125 C3.03709246 16.3385764 3.0191585 18.16929873 3 20 C2.34 20 1.68 20 1 20 C1 17.69 1 15.38 1 13 C0.01 13 -0.98 13 -2 13 C-2 14.98 -2 16.96 -2 19 C-2.99 19 -3.98 19 -5 19 C-5 13.72 -5 8.44 -5 3 C-4.34 3 -3.68 3 -3 3 C-3 5.97 -3 8.94 -3 12 C-2.01 11.67 -1.02 11.34 0 11 C0 7.37 0 3.74 0 0 Z " fill="#292829" transform="translate(39,14)"/>
<path d="M0 0 C-2.05233685 2.2477975 -3.00667261 3.0022242 -6 4 C-6.33 4.66 -6.66 5.32 -7 6 C-5.906875 5.979375 -4.81375 5.95875 -3.6875 5.9375 C0 6 0 6 3 7 C2.6875 9.375 2.6875 9.375 2 12 C-1 14 -1 14 -5 14 C-5 13.34 -5 12.68 -5 12 C-4.195625 11.71125 -3.39125 11.4225 -2.5625 11.125 C0.1326468 10.26737432 0.1326468 10.26737432 1 8 C-1.97851562 8.09765625 -1.97851562 8.09765625 -4.95703125 8.1953125 C-7 8 -7 8 -10 6 C-9.75 4.125 -9.75 4.125 -9 2 C-6.04454879 -0.11103658 -3.56144099 -0.19785783 0 0 Z " fill="#252525" transform="translate(29,20)"/>
<path d="M0 0 C0.66 1.32 1.32 2.64 2 4 C2.99 3.67 3.98 3.34 5 3 C5.33 2.01 5.66 1.02 6 0 C7.65 0 9.3 0 11 0 C11 0.66 11 1.32 11 2 C10.01 2 9.02 2 8 2 C8.33 3.98 8.66 5.96 9 8 C8.34 8 7.68 8 7 8 C6.67 7.34 6.34 6.68 6 6 C4.68 6.33 3.36 6.66 2 7 C1.67 8.32 1.34 9.64 1 11 C0.34 11 -0.32 11 -1 11 C-1.14285714 3.57142857 -1.14285714 3.57142857 0 0 Z " fill="#272726" transform="translate(7,23)"/>
<path d="M0 0 C0.66 0 1.32 0 2 0 C3.14982602 4.09003859 3.11094256 8.03177051 3.0625 12.25 C3.05798828 12.99507812 3.05347656 13.74015625 3.04882812 14.5078125 C3.03709246 16.3385764 3.0191585 18.16929873 3 20 C2.34 20 1.68 20 1 20 C0.11978631 13.28837062 -0.11381955 6.76594019 0 0 Z " fill="#1A1A1A" transform="translate(39,14)"/>
<path d="M0 0 C1.98 0 3.96 0 6 0 C6 0.66 6 1.32 6 2 C5.01 2 4.02 2 3 2 C3.33 3.98 3.66 5.96 4 8 C3.34 8 2.68 8 2 8 C2 6.68 2 5.36 2 4 C1.34 4 0.68 4 0 4 C0 2.68 0 1.36 0 0 Z " fill="#191919" transform="translate(12,23)"/>
<path d="M0 0 C0.66 0.99 1.32 1.98 2 3 C-1.06117568 5.62386487 -1.73173127 6 -6 6 C-6 5.34 -6 4.68 -6 4 C-4.7934375 3.566875 -4.7934375 3.566875 -3.5625 3.125 C-0.8673532 2.26737432 -0.8673532 2.26737432 0 0 Z " fill="#313131" transform="translate(30,28)"/>
<path d="M0 0 C-2.13464912 2.45484649 -3.70720291 3.68134222 -7 4 C-7.66 3.34 -8.32 2.68 -9 2 C-5.86501708 0.14223235 -3.62528568 -0.20140476 0 0 Z " fill="#353536" transform="translate(29,20)"/>
<path d="M0 0 C1.74627478 2.61941217 2.38722388 4.03824877 3 7 C1.02 7.99 1.02 7.99 -1 9 C-0.67 6.03 -0.34 3.06 0 0 Z " fill="#D7D7D7" transform="translate(9,19)"/>
</svg>
