<?xml version="1.0" encoding="UTF-8"?>
<svg version="1.1" xmlns="http://www.w3.org/2000/svg" width="32" height="32">
<path d="M0 0 C10.56 0 21.12 0 32 0 C32 10.56 32 21.12 32 32 C21.44 32 10.88 32 0 32 C0 21.44 0 10.88 0 0 Z " fill="#FBFBFB" transform="translate(0,0)"/>
<path d="M0 0 C0.99 0.33 1.98 0.66 3 1 C3.33 2.65 3.66 4.3 4 6 C4.99 5.67 5.98 5.34 7 5 C7 5.66 7 6.32 7 7 C6.34 7 5.68 7 5 7 C5.33 8.32 5.66 9.64 6 11 C3.03 10.505 3.03 10.505 0 10 C-0.33 10.99 -0.66 11.98 -1 13 C-1.0272415 11.58344207 -1.04650467 10.16672955 -1.0625 8.75 C-1.07410156 7.96109375 -1.08570313 7.1721875 -1.09765625 6.359375 C-1.00385306 4.09308998 -0.63241063 2.1711105 0 0 Z " fill="#252525" transform="translate(5,10)"/>
<path d="M0 0 C0.66 0 1.32 0 2 0 C2 4.62 2 9.24 2 14 C0 13 0 13 -1 10 C-1.66 10.99 -2.32 11.98 -3 13 C-3 9.7 -3 6.4 -3 3 C-2.67 3 -2.34 3 -2 3 C-2 4.65 -2 6.3 -2 8 C-1.34 8 -0.68 8 0 8 C0 5.36 0 2.72 0 0 Z " fill="#303030" transform="translate(26,9)"/>
<path d="M0 0 C-1.98 0.99 -1.98 0.99 -4 2 C-1.525 2.99 -1.525 2.99 1 4 C0.67 5.32 0.34 6.64 0 8 C-1.32 8.33 -2.64 8.66 -4 9 C-4 8.34 -4 7.68 -4 7 C-3.01 6.67 -2.02 6.34 -1 6 C-2.98 5.34 -4.96 4.68 -7 4 C-6.625 2.0625 -6.625 2.0625 -6 0 C-3.50907189 -1.24546405 -2.58919267 -0.7767578 0 0 Z " fill="#4B4B4B" transform="translate(20,14)"/>
<path d="M0 0 C2.1385485 2.1385485 2.42655063 3.13275314 3 6 C2.360625 6.103125 1.72125 6.20625 1.0625 6.3125 C0.381875 6.539375 -0.29875 6.76625 -1 7 C-1.33 7.99 -1.66 8.98 -2 10 C-2 7.03 -2 4.06 -2 1 C-1.34 0.67 -0.68 0.34 0 0 Z " fill="#747475" transform="translate(6,13)"/>
</svg>
